<?xml version="1.0" encoding="UTF-8"?><svg id="a" xmlns="http://www.w3.org/2000/svg" width="111.41" height="24.92" viewBox="0 0 111.41 24.92">
<title>Brother logo - Brandlogos.net</title><path d="M10.15,9.07c3.2,0,5.62,2.46,5.62,5.6s-2.44,5.6-5.62,5.6-5.62-2.47-5.62-5.6,2.43-5.6,5.62-5.6ZM38.7,9.07c3.19,0,5.63,2.46,5.63,5.6s-2.45,5.6-5.63,5.6-5.62-2.47-5.62-5.6,2.43-5.6,5.62-5.6ZM90.68,8.46c3.05,0,4.88,2.43,5.24,3.95h-10.45c.79-2.44,2.84-3.95,5.21-3.95ZM10.15,24.87c5.27,0,9.12-3.41,10.07-7.97v7.49h4.82v-9.34c0-.43.03-.9.04-1.34.09-2.84,1.96-4.54,4.94-4.59-1.04,1.6-1.64,3.5-1.64,5.54,0,5.66,4.61,10.24,10.3,10.24,5.01,0,9.19-3.56,10.11-8.27v.02c0,4.92,3.98,8.27,8.76,8.27,2.02,0,3.8-.86,5.16-2.27v1.72h4.81v-10.27c0-.19.01-.36.02-.52.12-3.26,2.04-4.68,4.15-4.68s3.9,1.42,3.98,4.66c.02.28.02.47.02.79v10.01h4.88v-7.63c.91,4.93,5.1,8.1,10.1,8.1,5.66,0,8.86-3.6,9.71-7.37h-4.72c-.41,1.34-2.08,3.4-4.99,3.4-2.62,0-4.86-1.78-5.43-4.69h15.68v8.18h4.83v-9.34c0-.43.03-.9.04-1.34.09-2.89,2.02-4.59,5.08-4.59h.53v-4.58h-.53c-6.39,0-9.8,3.57-9.94,8.19-.92-5.03-5.29-8.31-10.26-8.31s-9.18,3.28-10.09,8.27c0-4.43-3.48-8.26-8.01-8.26-1.97,0-3.68.75-5.04,2.07V.04h-4.81v14.37c0,.47-.02.78-.09,1.48-.3,2.98-2.32,4.45-4.52,4.45s-4.34-1.07-4.41-4.44c-.01-.58-.03-.82-.03-1.24v-5.38h7.49v-4.51h-7.49V.04h-4.89v12.65c-.92-4.71-5.09-8.27-10.11-8.27-3.23,0-6.11,1.47-8,3.78v-3.67h-.54c-6.29,0-9.69,3.45-9.93,7.96-.92-4.57-4.72-7.96-9.52-7.96-2.52,0-4.48.91-6.01,2.44V0H0v12.12c0,.89.02,1.73.03,2.54.06,5.6,4.02,10.2,10.12,10.2Z" style="fill:#0d2ea0;"/></svg>