<svg xmlns="http://www.w3.org/2000/svg" viewBox="0 10 180 30" width="180" height="50">
  <g fill="white">
    <!-- Icon -->
    <path d="M15 15c0-4.4 3.6-8 8-8s8 3.6 8 8-3.6 8-8 8-8-3.6-8-8zm14.4 0c0-3.5-2.9-6.4-6.4-6.4s-6.4 2.9-6.4 6.4 2.9 6.4 6.4 6.4 6.4-2.9 6.4-6.4z"/>
    <path d="M23 11c-2.2 0-4 1.8-4 4s1.8 4 4 4 4-1.8 4-4-1.8-4-4-4zm0 6.4c-1.3 0-2.4-1.1-2.4-2.4s1.1-2.4 2.4-2.4 2.4 1.1 2.4 2.4-1.1 2.4-2.4 2.4z"/>
    <!-- Text -->
    <text x="45" y="26" font-family="Arial, sans-serif" font-size="18" font-weight="700">Electrolux</text>
  </g>
</svg>