<?xml version="1.0" encoding="utf-8"?>
<!-- Generator: Adobe Illustrator 25.4.1, SVG Export Plug-In . SVG Version: 6.00 Build 0)  -->
<svg version="1.1" id="Layer_1" xmlns="http://www.w3.org/2000/svg" xmlns:xlink="http://www.w3.org/1999/xlink" x="0px" y="0px"
	 viewBox="0 0 871.25 301.89" style="enable-background:new 0 0 871.25 301.89;" xml:space="preserve">
<style type="text/css">
	.st0{stroke:#FFFFFF;stroke-width:0.1;stroke-miterlimit:10;}
	.st1{fill:none;stroke:#000000;stroke-width:0.1;stroke-miterlimit:10;}
</style>
<g>
	<g>
		<path class="st0" d="M113.87,135.3c-4.41-1.91-9.02-2.71-13.76-2.7c-16.71,0.03-33.42,0.02-50.14-0.01
			c-1.42,0-2.86-0.11-4.27-0.37c-1.95-0.36-3.66-1.31-4.25-3.57c-0.19-0.72,0.03-1.83,0.45-2.44c1.47-2.13,3.63-2.67,5.96-2.67
			c8.18,0,16.37,0.01,24.55-0.03c14.13-0.07,28.27-0.35,42.4-0.17c3.28,0.04,4.63-2.42,6.7-4.05c0.13-0.1,0.13-0.47,0.13-0.71
			c0.01-7.05,0-14.09,0-21.26c-0.7-0.07-0.92-0.11-1.14-0.11c-24.84,0-49.68-0.08-74.52,0.04c-7.27,0.04-13.66,2.87-18.62,8.96
			c-4.13,5.07-6.07,11.14-6.49,17.88c-0.4,6.5,1.55,12.46,3.82,18.18c2.62,6.6,7.92,10.29,14,12.04c4.2,1.21,8.69,1.63,13.05,1.68
			c15.74,0.19,31.48,0.07,47.22,0.07c2.58,0,4.96,0.6,7.03,2.46c2.36,2.12,2.47,4.15,0.19,6.48c-1.74,1.77-3.89,1.96-6.1,1.96
			c-24.5-0.01-48.99-0.01-73.49-0.02c-0.84,0-1.68,0-2.66,0c0,7.41,0,14.62,0,21.69c0.58,0.43,1.33,0.67,1.52,1.17
			c0.88,2.33,2.68,2.8,4.62,2.9c3.31,0.17,6.63,0.3,9.95,0.29c7.26-0.03,14.52-0.2,21.79-0.22c4.63-0.01,9.25,0.24,13.88,0.22
			c7.76-0.03,15.52-0.15,23.28-0.28c7.71-0.13,15.05-1.64,21.05-7.5c1.43-1.4,2.84-2.97,3.8-4.77c1.27-2.39,2.1-5.07,3.11-7.63
			c1.44-3.63,2.1-7.45,2.14-11.39C129.25,149.59,124.13,139.74,113.87,135.3z"/>
		<path class="st0" d="M457.32,129.72c-2.25-28.3-34.75-39.51-58.71-30.68c-5.18,1.91-9.83,4.92-14.67,7.49
			c-1.01,0.54-1.68,0.62-2.71-0.04c-2.11-1.34-4.41-2.47-6.58-3.75c-8.72-5.16-18.32-7.3-28.87-6.44
			c-12.72,1.04-23.06,5.7-30.45,14.79c-5.03,6.19-7.1,13.25-7.18,20.67c-0.19,17.51-0.12,35.02-0.12,52.53c0,2-0.77,4.22,1.68,5.72
			c1.2,0.73,2.28,2.13,3.51,2.2c4.49,0.29,9.03,0.34,13.53,0.11c2.72-0.14,5.55-3.49,5.56-5.86c0.02-17.38,0.06-34.77,0.02-52.15
			c-0.01-2.61,0.78-4.94,2.93-6.68c3.72-3.03,8.14-4.8,13.41-4.85c5.15-0.05,9.98,0.73,14.45,3.07c3.51,1.84,6.36,4.01,6.37,7.86
			c0.05,16.5,0.04,33,0.1,49.5c0.01,2.47-0.72,4.98,2.02,7.09c1.46,1.13,2.62,2.37,4.68,2.35c4.46-0.05,8.91-0.09,13.36-0.31
			c2.72-0.13,5.81-3.34,5.81-5.69c0.02-17.07,0.2-34.14-0.05-51.2c-0.07-4.91,3.15-7.65,7.11-9.85c5.29-2.94,11.37-3.59,17.54-2.38
			c6.58,1.29,12.59,3.78,12.33,12.62c-0.51,16.8-0.06,33.63-0.21,50.45c-0.03,2.79,2.52,3.84,3.83,5.72
			c0.12,0.17,0.52,0.28,0.79,0.28c5.24,0.05,10.5,0.23,15.73,0.03c2.16-0.08,5.13-3.31,5.13-4.82c0-9.7,0-19.4,0-29.1
			c-0.06,0-0.13,0-0.19,0C457.44,148.86,458.08,139.25,457.32,129.72z"/>
		<path class="st0" d="M579.4,126.53c-2.2-17.34-16.51-29.28-35.03-29.3c-19.3-0.01-38.61-0.01-57.91-0.02c-0.71,0-1.43,0-2.25,0
			c-0.07,0.77-0.15,1.31-0.15,1.86c-0.05,5.6-0.15,11.21-0.07,16.81c0.02,1.49-1.18,3.69,1.79,4.14c0.06,0.01,0.1,0.22,0.13,0.34
			c0.74,2.86,3.09,3.11,5.62,3.11c6.81,0,13.63,0.06,20.44,0.02c9.55-0.06,19.09-0.25,28.64-0.24c3.59,0,7.26,0.05,10.75,0.75
			c3.65,0.74,7.04,3.05,6.66,6.82c-0.12,1.24-0.5,1.67-1.75,1.66c-1.6-0.01-3.21,0.09-4.81,0.09c-13.09,0.01-26.18-0.01-39.27,0.03
			c-2.8,0.01-5.61,0.1-8.38,0.45c-6.38,0.81-12.39,2.59-17.27,6.78c-7.13,6.12-9.71,13.91-9.1,22.8c0.4,5.91,2.38,11.43,5.42,16.51
			c4.04,6.77,10.46,10.81,18.44,12.43c3.43,0.69,7.01,1.04,10.52,1.06c16.23,0.12,32.46,0.08,48.69,0.09
			c4.14,0,8.29,0.06,12.42-0.05c4.16-0.11,6.9-2.85,6.9-6.68c0.01-17.07,0.03-34.14,0-51.21
			C579.82,132.05,579.75,129.27,579.4,126.53z M554.09,166.92c-14.48,0.02-28.96,0.06-43.44-0.03c-1.92-0.01-4.11-0.39-5.68-1.33
			c-1.41-0.84-2.25-2.64-3.08-4.14c-0.27-0.49,0.01-1.65,0.48-2.03c1.79-1.46,3.54-3,6.23-3.01c14.41-0.05,28.82-0.17,43.23-0.25
			c0.73,0,1.46,0.12,2.18,0.26c3.15,0.59,3.77,1.27,3.85,4.25c0.05,1.94,0.01,3.88,0.01,6.08
			C556.47,166.79,555.28,166.92,554.09,166.92z"/>
		<path class="st0" d="M243.75,125.64c-1.71-10.63-7.12-19.03-17.27-24.3c-5.6-2.91-11.72-4.12-18.1-4.12
			c-19.51,0-39.01-0.01-58.52-0.02c-0.45,0-0.9,0.06-1.51,0.1c-0.04,0.76-0.09,1.44-0.1,2.11c-0.05,5.1-0.2,10.21-0.08,15.3
			c0.05,1.92-1.39,4.49,1.87,5.52c0.97,3.34,3.88,3.21,6.63,3.23c7.35,0.04,14.7,0.01,22.04,0.02c11.22,0.02,22.44-0.05,33.66,0.12
			c3.86,0.06,7.3,1.25,9.05,5.07c1.39,3.05,0.99,3.89-2.41,3.9c-12.36,0.02-24.72-0.01-37.08,0.04c-4.33,0.02-8.7-0.01-12.99,0.45
			c-6.6,0.71-12.8,2.67-17.69,7.18c-8.66,7.99-10.14,17.78-7.54,28.41c0.65,2.66,2.28,5.1,3.04,7.74c1.23,4.27,4.29,7.33,7.7,9.84
			c6.67,4.91,14.64,6.47,22.97,6.48c19.37,0.02,38.75,0,58.12,0.02c2.89,0,5.72,0.05,7.06-3.06c0.09-0.21,0.35-0.49,0.56-0.51
			c1.43-0.14,1.17-1.12,1.17-1.97c-0.01-18.02,0-36.03-0.05-54.05C244.26,130.66,244.15,128.12,243.75,125.64z M218.23,166.94
			c-14.15,0.01-28.29,0.02-42.44,0c-3.19,0-6.13-0.58-7.94-3.45c-1.54-2.44-1.3-3.54,1.05-5.23c2.24-1.6,4.84-2.13,7.53-2.14
			c12.81-0.06,25.62-0.04,38.43-0.05c0.33,0,0.67,0.03,1,0.06c5.71,0.59,6.15,1.04,6.2,6.39c0.01,1.31,0,2.63,0,4.17
			C220.62,166.81,219.42,166.94,218.23,166.94z"/>
		<path class="st0" d="M850.39,187.01c0.01-2.26,0-4.52,0-6.78c0-4.11-0.02-4.25-0.02-7.45c0-2.48,0.02-4.5,0.04-5.82
			c-0.27,0-0.76,0-1.38,0c-18.84,0.04-37.67,0.01-56.51-0.01c-4.65,0-9.18-0.66-13.32-2.84c-6.48-3.42-9.76-8.86-11.07-15.58
			c-1.57-8.05,1.13-14.76,7.59-19.91c5.72-4.56,12.42-4.93,15.74-5.12c11.66-0.67,32.36-0.97,58.91-0.12l0.01-25.58
			c-2.1-0.01-5.24-0.03-9.11-0.03c-0.95,0-1.65,0-2.09,0c-13.19,0-16.27,0.02-25.8,0.01c-3.82-0.01-7.63,0-11.45-0.02
			c-6.36-0.03-7.68-0.06-10.14,0.02c-3.04,0.09-8.07,0.25-12.32,0.98c-12.73,2.21-21.33,10.16-22.88,11.64
			c-1.6,1.52-6.09,6.02-9.48,13.12c-6.31,13.22-7.09,31.86,2.7,47.09c7,10.88,16.82,16.04,21.51,18.06
			c5.87,2.54,10.48,3.85,19.86,3.99c22.91,0.33,49.13-0.04,53.33,0.11c0.96,0.03,1.92-0.01,2.88,0.03c1.48,0.06,2.93,0.19,3.01-0.12
			c0.01-0.02,0-0.05,0-0.06c0-0.56,0-1.42,0-2.48C850.4,188.56,850.38,187.41,850.39,187.01z"/>
		<path class="st0" d="M694.22,97.29c-35.18,0-70.02,0-105.48,0c0,7.22-0.01,14.32,0.02,21.42c0,0.31,0.27,0.7,0.53,0.93
			c0.72,0.64,1.44,1.28,2.26,1.79c1.08,0.66,2.22,1.66,3.38,1.7c6.4,0.24,12.81,0.25,19.22,0.3c2.86,0.02,5.74-0.21,8.59-0.02
			c3.83,0.26,5.7,1.2,5.66,5.81c-0.15,18.2-0.09,36.4-0.08,54.61c0,2.23-0.51,4.43,1.76,6.37c1.52,1.29,2.82,2.42,4.88,2.49
			c1.67,0.05,3.34,0.08,5.01,0c2.85-0.15,5.72-0.21,8.53-0.65c2.15-0.34,4.36-3.41,4.37-5.43c0.02-19.71,0.04-39.43,0.07-59.14
			c0-2.57,0.97-3.6,3.69-3.9c1.92-0.21,3.86-0.32,5.79-0.33c8.34-0.04,16.68-0.05,25.02-0.03c2.08,0.01,3.61-0.64,4.49-2.52
			c0.17-0.37,0.68-0.8,1.08-0.85c1.21-0.15,1.27-0.85,1.27-1.75c-0.03-4.6-0.04-9.2-0.05-13.79
			C694.22,101.99,694.22,99.68,694.22,97.29z"/>
		<path class="st0" d="M729,97.77c-8.39,0-16.3,0-24.66,0c0,3.4,0,6.7,0,10c-0.01,25.97-0.02,51.94,0,77.91
			c0,1.36-0.71,3.1,1.66,3.56c0.16,0.03,0.27,0.41,0.37,0.64c0.84,1.97,2.56,2.64,4.64,2.65c3.81,0.03,7.62,0.09,11.42-0.04
			c1.98-0.06,3.79-0.72,4.68-2.66c0.16-0.35,0.64-0.56,0.89-0.89c0.39-0.52,1.01-1.08,1.02-1.63c0.03-27.28,0.01-54.56-0.01-81.85
			C729,102.92,729,100.38,729,97.77z"/>
		<path class="st0" d="M289.19,97.29c-8.16,0-16.14,0-24.35,0c0,0.84,0,1.58,0,2.32c-0.05,28.26-0.04,56.53-0.23,84.79
			c-0.02,2.71,0.52,4.89,2.65,6.58c0.97,0.77,2.25,1.58,3.43,1.63c4.26,0.2,8.54,0.18,12.81,0.05c2.86-0.09,5.83-3.04,5.83-5.49
			c-0.01-29.27-0.03-58.55-0.06-87.82C289.29,98.68,289.22,98.01,289.19,97.29z"/>
	</g>
	<g>
		<g>
			<path class="st0" d="M134.05,265.13v-29.45h-15.21v-3.94h36.6v3.94h-15.29v29.45H134.05z"/>
			<path class="st0" d="M165.68,265.13v-33.39h33.38v3.94h-27.27v10.2h25.54v3.94h-25.54v11.37h28.35v3.94H165.68z"/>
			<path class="st0" d="M245.28,253.43l6.15,1.12c-1.36,3.75-3.73,6.55-7.12,8.39c-3.39,1.84-7.52,2.77-12.39,2.77
				c-4.28,0-7.93-0.62-10.97-1.86c-3.03-1.24-5.52-3.22-7.45-5.96c-1.93-2.73-2.9-5.96-2.9-9.69c0-3.68,0.97-6.79,2.9-9.33
				c1.93-2.54,4.56-4.47,7.86-5.77c3.31-1.3,7-1.95,11.07-1.95c4.46,0,8.29,0.82,11.5,2.47s5.45,4.06,6.73,7.24l-5.99,1.02
				c-2.05-4.63-6.17-6.95-12.35-6.95c-3.08,0-5.74,0.47-8,1.4c-2.26,0.93-4.06,2.39-5.4,4.37s-2.02,4.48-2.02,7.5
				c0,4.57,1.36,8.01,4.07,10.29c2.71,2.29,6.32,3.43,10.83,3.43c3.33,0,6.2-0.7,8.62-2.11S244.46,256.28,245.28,253.43z"/>
			<path class="st0" d="M262.96,265.13v-33.39h6.11v13.71h24.01v-13.71h6.11v33.39h-6.11V249.4h-24.01v15.74H262.96z"/>
			<path class="st0" d="M313.29,265.13v-33.39h6.26l24.28,26.27v-26.27h5.84v33.39h-6.26l-24.24-26.27v26.27H313.29z"/>
			<path class="st0" d="M362.24,248.87c0-5.69,2.11-10.07,6.34-13.13c4.22-3.06,9.49-4.59,15.79-4.59c4.07,0,7.78,0.68,11.14,2.05
				c3.35,1.37,6.01,3.35,7.97,5.96c1.96,2.6,2.94,5.71,2.94,9.3c0,4.95-1.9,8.98-5.68,12.09c-4.17,3.43-9.64,5.15-16.4,5.15
				c-6.81,0-12.29-1.76-16.44-5.28C364.12,257.23,362.24,253.38,362.24,248.87z M368.54,248.93c0,4.12,1.53,7.31,4.59,9.59
				s6.78,3.41,11.16,3.41c4.48,0,8.24-1.15,11.27-3.44s4.55-5.67,4.55-10.12c0-2.87-0.78-5.44-2.34-7.7
				c-1.2-1.73-3.01-3.12-5.43-4.16c-2.42-1.04-5.06-1.56-7.93-1.56c-4.61,0-8.41,1.14-11.39,3.42
				C370.03,240.63,368.54,244.16,368.54,248.93z"/>
			<path class="st0" d="M417.72,265.13v-33.39h6.11v29.45h22.74v3.94H417.72z"/>
			<path class="st0" d="M456.18,248.87c0-5.69,2.11-10.07,6.34-13.13c4.22-3.06,9.49-4.59,15.79-4.59c4.07,0,7.78,0.68,11.14,2.05
				c3.35,1.37,6.01,3.35,7.97,5.96c1.96,2.6,2.94,5.71,2.94,9.3c0,4.95-1.9,8.98-5.68,12.09c-4.17,3.43-9.64,5.15-16.4,5.15
				c-6.81,0-12.29-1.76-16.44-5.28C458.06,257.23,456.18,253.38,456.18,248.87z M462.48,248.93c0,4.12,1.53,7.31,4.59,9.59
				s6.78,3.41,11.16,3.41c4.48,0,8.24-1.15,11.27-3.44s4.55-5.67,4.55-10.12c0-2.87-0.78-5.44-2.34-7.7
				c-1.2-1.73-3.01-3.12-5.43-4.16c-2.42-1.04-5.06-1.56-7.93-1.56c-4.61,0-8.41,1.14-11.39,3.42
				C463.97,240.63,462.48,244.16,462.48,248.93z"/>
			<path class="st0" d="M533.78,252.04v-3.94l19.55-0.02v12.41c-3,1.73-6.09,3.03-9.29,3.91c-3.2,0.87-6.49,1.31-9.87,1.31
				c-4.51,0-8.53-0.67-12.06-2.01c-3.53-1.34-6.33-3.29-8.39-5.86c-2.06-2.57-3.09-5.65-3.09-9.25c0-3.65,1.04-6.82,3.11-9.53
				c2.07-2.7,4.79-4.7,8.14-5.98c3.35-1.28,7.32-1.93,11.91-1.93c3.38,0,6.34,0.37,8.87,1.12c2.54,0.74,4.62,1.8,6.26,3.17
				c1.64,1.37,2.87,3.24,3.69,5.63l-5.49,1.09c-0.74-1.88-1.68-3.29-2.8-4.23c-1.13-0.93-2.61-1.67-4.46-2.2
				c-1.84-0.53-3.92-0.8-6.22-0.8c-3.35,0-6.24,0.48-8.66,1.45c-2.42,0.97-4.37,2.47-5.84,4.5c-1.47,2.04-2.21,4.52-2.21,7.45
				c0,4.47,1.58,7.81,4.72,10.04c3.15,2.23,7.25,3.34,12.29,3.34c2.41,0,4.87-0.34,7.39-1.02c2.52-0.68,4.53-1.5,6.01-2.44v-6.22
				H533.78z"/>
			<path class="st0" d="M579.16,265.13v-14.14l-17.78-19.25h7.46l9.07,10.08c1.79,1.99,3.37,3.88,4.73,5.65
				c1.36-1.75,3.04-3.72,5.04-5.91l8.97-9.83h7.06l-18.44,19.25v14.14H579.16z"/>
			<path class="st0" d="M633.5,265.13v-33.39h6.11v29.45h22.74v3.94H633.5z"/>
			<path class="st0" d="M673.31,265.13v-33.39h6.11v29.45h22.74v3.94H673.31z"/>
			<path class="st0" d="M746.26,253.43l6.15,1.12c-1.36,3.75-3.73,6.55-7.12,8.39s-7.52,2.77-12.39,2.77
				c-4.28,0-7.93-0.62-10.97-1.86c-3.03-1.24-5.52-3.22-7.45-5.96c-1.93-2.73-2.9-5.96-2.9-9.69c0-3.68,0.97-6.79,2.9-9.33
				c1.94-2.54,4.56-4.47,7.86-5.77c3.31-1.3,7-1.95,11.07-1.95c4.46,0,8.29,0.82,11.5,2.47s5.45,4.06,6.73,7.24l-5.99,1.02
				c-2.05-4.63-6.17-6.95-12.35-6.95c-3.08,0-5.74,0.47-8,1.4s-4.06,2.39-5.4,4.37c-1.35,1.98-2.02,4.48-2.02,7.5
				c0,4.57,1.36,8.01,4.07,10.29c2.71,2.29,6.32,3.43,10.83,3.43c3.33,0,6.2-0.7,8.62-2.11S745.44,256.28,746.26,253.43z"/>
		</g>
		<g>
			<path d="M134.05,265.13v-29.45h-15.21v-3.94h36.6v3.94h-15.29v29.45H134.05z"/>
			<path d="M165.68,265.13v-33.39h33.38v3.94h-27.27v10.2h25.54v3.94h-25.54v11.37h28.35v3.94H165.68z"/>
			<path d="M245.28,253.43l6.15,1.12c-1.36,3.75-3.73,6.55-7.12,8.39c-3.39,1.84-7.52,2.77-12.39,2.77c-4.28,0-7.93-0.62-10.97-1.86
				c-3.03-1.24-5.52-3.22-7.45-5.96c-1.93-2.73-2.9-5.96-2.9-9.69c0-3.68,0.97-6.79,2.9-9.33c1.93-2.54,4.56-4.47,7.86-5.77
				c3.31-1.3,7-1.95,11.07-1.95c4.46,0,8.29,0.82,11.5,2.47s5.45,4.06,6.73,7.24l-5.99,1.02c-2.05-4.63-6.17-6.95-12.35-6.95
				c-3.08,0-5.74,0.47-8,1.4c-2.26,0.93-4.06,2.39-5.4,4.37s-2.02,4.48-2.02,7.5c0,4.57,1.36,8.01,4.07,10.29
				c2.71,2.29,6.32,3.43,10.83,3.43c3.33,0,6.2-0.7,8.62-2.11S244.46,256.28,245.28,253.43z"/>
			<path d="M262.96,265.13v-33.39h6.11v13.71h24.01v-13.71h6.11v33.39h-6.11V249.4h-24.01v15.74H262.96z"/>
			<path d="M313.29,265.13v-33.39h6.26l24.28,26.27v-26.27h5.84v33.39h-6.26l-24.24-26.27v26.27H313.29z"/>
			<path d="M362.24,248.87c0-5.69,2.11-10.07,6.34-13.13c4.22-3.06,9.49-4.59,15.79-4.59c4.07,0,7.78,0.68,11.14,2.05
				c3.35,1.37,6.01,3.35,7.97,5.96c1.96,2.6,2.94,5.71,2.94,9.3c0,4.95-1.9,8.98-5.68,12.09c-4.17,3.43-9.64,5.15-16.4,5.15
				c-6.81,0-12.29-1.76-16.44-5.28C364.12,257.23,362.24,253.38,362.24,248.87z M368.54,248.93c0,4.12,1.53,7.31,4.59,9.59
				s6.78,3.41,11.16,3.41c4.48,0,8.24-1.15,11.27-3.44s4.55-5.67,4.55-10.12c0-2.87-0.78-5.44-2.34-7.7
				c-1.2-1.73-3.01-3.12-5.43-4.16c-2.42-1.04-5.06-1.56-7.93-1.56c-4.61,0-8.41,1.14-11.39,3.42
				C370.03,240.63,368.54,244.16,368.54,248.93z"/>
			<path d="M417.72,265.13v-33.39h6.11v29.45h22.74v3.94H417.72z"/>
			<path d="M456.18,248.87c0-5.69,2.11-10.07,6.34-13.13c4.22-3.06,9.49-4.59,15.79-4.59c4.07,0,7.78,0.68,11.14,2.05
				c3.35,1.37,6.01,3.35,7.97,5.96c1.96,2.6,2.94,5.71,2.94,9.3c0,4.95-1.9,8.98-5.68,12.09c-4.17,3.43-9.64,5.15-16.4,5.15
				c-6.81,0-12.29-1.76-16.44-5.28C458.06,257.23,456.18,253.38,456.18,248.87z M462.48,248.93c0,4.12,1.53,7.31,4.59,9.59
				s6.78,3.41,11.16,3.41c4.48,0,8.24-1.15,11.27-3.44s4.55-5.67,4.55-10.12c0-2.87-0.78-5.44-2.34-7.7
				c-1.2-1.73-3.01-3.12-5.43-4.16c-2.42-1.04-5.06-1.56-7.93-1.56c-4.61,0-8.41,1.14-11.39,3.42
				C463.97,240.63,462.48,244.16,462.48,248.93z"/>
			<path d="M533.78,252.04v-3.94l19.55-0.02v12.41c-3,1.73-6.09,3.03-9.29,3.91c-3.2,0.87-6.49,1.31-9.87,1.31
				c-4.51,0-8.53-0.67-12.06-2.01c-3.53-1.34-6.33-3.29-8.39-5.86c-2.06-2.57-3.09-5.65-3.09-9.25c0-3.65,1.04-6.82,3.11-9.53
				c2.07-2.7,4.79-4.7,8.14-5.98c3.35-1.28,7.32-1.93,11.91-1.93c3.38,0,6.34,0.37,8.87,1.12c2.54,0.74,4.62,1.8,6.26,3.17
				c1.64,1.37,2.87,3.24,3.69,5.63l-5.49,1.09c-0.74-1.88-1.68-3.29-2.8-4.23c-1.13-0.93-2.61-1.67-4.46-2.2
				c-1.84-0.53-3.92-0.8-6.22-0.8c-3.35,0-6.24,0.48-8.66,1.45c-2.42,0.97-4.37,2.47-5.84,4.5c-1.47,2.04-2.21,4.52-2.21,7.45
				c0,4.47,1.58,7.81,4.72,10.04c3.15,2.23,7.25,3.34,12.29,3.34c2.41,0,4.87-0.34,7.39-1.02c2.52-0.68,4.53-1.5,6.01-2.44v-6.22
				H533.78z"/>
			<path d="M579.16,265.13v-14.14l-17.78-19.25h7.46l9.07,10.08c1.79,1.99,3.37,3.88,4.73,5.65c1.36-1.75,3.04-3.72,5.04-5.91
				l8.97-9.83h7.06l-18.44,19.25v14.14H579.16z"/>
			<path d="M633.5,265.13v-33.39h6.11v29.45h22.74v3.94H633.5z"/>
			<path d="M673.31,265.13v-33.39h6.11v29.45h22.74v3.94H673.31z"/>
			<path d="M746.26,253.43l6.15,1.12c-1.36,3.75-3.73,6.55-7.12,8.39s-7.52,2.77-12.39,2.77c-4.28,0-7.93-0.62-10.97-1.86
				c-3.03-1.24-5.52-3.22-7.45-5.96c-1.93-2.73-2.9-5.96-2.9-9.69c0-3.68,0.97-6.79,2.9-9.33c1.94-2.54,4.56-4.47,7.86-5.77
				c3.31-1.3,7-1.95,11.07-1.95c4.46,0,8.29,0.82,11.5,2.47s5.45,4.06,6.73,7.24l-5.99,1.02c-2.05-4.63-6.17-6.95-12.35-6.95
				c-3.08,0-5.74,0.47-8,1.4s-4.06,2.39-5.4,4.37c-1.35,1.98-2.02,4.48-2.02,7.5c0,4.57,1.36,8.01,4.07,10.29
				c2.71,2.29,6.32,3.43,10.83,3.43c3.33,0,6.2-0.7,8.62-2.11S745.44,256.28,746.26,253.43z"/>
		</g>
		<g>
			<path class="st1" d="M134.05,265.13v-29.45h-15.21v-3.94h36.6v3.94h-15.29v29.45H134.05z"/>
			<path class="st1" d="M165.68,265.13v-33.39h33.38v3.94h-27.27v10.2h25.54v3.94h-25.54v11.37h28.35v3.94H165.68z"/>
			<path class="st1" d="M245.28,253.43l6.15,1.12c-1.36,3.75-3.73,6.55-7.12,8.39c-3.39,1.84-7.52,2.77-12.39,2.77
				c-4.28,0-7.93-0.62-10.97-1.86c-3.03-1.24-5.52-3.22-7.45-5.96c-1.93-2.73-2.9-5.96-2.9-9.69c0-3.68,0.97-6.79,2.9-9.33
				c1.93-2.54,4.56-4.47,7.86-5.77c3.31-1.3,7-1.95,11.07-1.95c4.46,0,8.29,0.82,11.5,2.47s5.45,4.06,6.73,7.24l-5.99,1.02
				c-2.05-4.63-6.17-6.95-12.35-6.95c-3.08,0-5.74,0.47-8,1.4c-2.26,0.93-4.06,2.39-5.4,4.37s-2.02,4.48-2.02,7.5
				c0,4.57,1.36,8.01,4.07,10.29c2.71,2.29,6.32,3.43,10.83,3.43c3.33,0,6.2-0.7,8.62-2.11S244.46,256.28,245.28,253.43z"/>
			<path class="st1" d="M262.96,265.13v-33.39h6.11v13.71h24.01v-13.71h6.11v33.39h-6.11V249.4h-24.01v15.74H262.96z"/>
			<path class="st1" d="M313.29,265.13v-33.39h6.26l24.28,26.27v-26.27h5.84v33.39h-6.26l-24.24-26.27v26.27H313.29z"/>
			<path class="st1" d="M362.24,248.87c0-5.69,2.11-10.07,6.34-13.13c4.22-3.06,9.49-4.59,15.79-4.59c4.07,0,7.78,0.68,11.14,2.05
				c3.35,1.37,6.01,3.35,7.97,5.96c1.96,2.6,2.94,5.71,2.94,9.3c0,4.95-1.9,8.98-5.68,12.09c-4.17,3.43-9.64,5.15-16.4,5.15
				c-6.81,0-12.29-1.76-16.44-5.28C364.12,257.23,362.24,253.38,362.24,248.87z M368.54,248.93c0,4.12,1.53,7.31,4.59,9.59
				s6.78,3.41,11.16,3.41c4.48,0,8.24-1.15,11.27-3.44s4.55-5.67,4.55-10.12c0-2.87-0.78-5.44-2.34-7.7
				c-1.2-1.73-3.01-3.12-5.43-4.16c-2.42-1.04-5.06-1.56-7.93-1.56c-4.61,0-8.41,1.14-11.39,3.42
				C370.03,240.63,368.54,244.16,368.54,248.93z"/>
			<path class="st1" d="M417.72,265.13v-33.39h6.11v29.45h22.74v3.94H417.72z"/>
			<path class="st1" d="M456.18,248.87c0-5.69,2.11-10.07,6.34-13.13c4.22-3.06,9.49-4.59,15.79-4.59c4.07,0,7.78,0.68,11.14,2.05
				c3.35,1.37,6.01,3.35,7.97,5.96c1.96,2.6,2.94,5.71,2.94,9.3c0,4.95-1.9,8.98-5.68,12.09c-4.17,3.43-9.64,5.15-16.4,5.15
				c-6.81,0-12.29-1.76-16.44-5.28C458.06,257.23,456.18,253.38,456.18,248.87z M462.48,248.93c0,4.12,1.53,7.31,4.59,9.59
				s6.78,3.41,11.16,3.41c4.48,0,8.24-1.15,11.27-3.44s4.55-5.67,4.55-10.12c0-2.87-0.78-5.44-2.34-7.7
				c-1.2-1.73-3.01-3.12-5.43-4.16c-2.42-1.04-5.06-1.56-7.93-1.56c-4.61,0-8.41,1.14-11.39,3.42
				C463.97,240.63,462.48,244.16,462.48,248.93z"/>
			<path class="st1" d="M533.78,252.04v-3.94l19.55-0.02v12.41c-3,1.73-6.09,3.03-9.29,3.91c-3.2,0.87-6.49,1.31-9.87,1.31
				c-4.51,0-8.53-0.67-12.06-2.01c-3.53-1.34-6.33-3.29-8.39-5.86c-2.06-2.57-3.09-5.65-3.09-9.25c0-3.65,1.04-6.82,3.11-9.53
				c2.07-2.7,4.79-4.7,8.14-5.98c3.35-1.28,7.32-1.93,11.91-1.93c3.38,0,6.34,0.37,8.87,1.12c2.54,0.74,4.62,1.8,6.26,3.17
				c1.64,1.37,2.87,3.24,3.69,5.63l-5.49,1.09c-0.74-1.88-1.68-3.29-2.8-4.23c-1.13-0.93-2.61-1.67-4.46-2.2
				c-1.84-0.53-3.92-0.8-6.22-0.8c-3.35,0-6.24,0.48-8.66,1.45c-2.42,0.97-4.37,2.47-5.84,4.5c-1.47,2.04-2.21,4.52-2.21,7.45
				c0,4.47,1.58,7.81,4.72,10.04c3.15,2.23,7.25,3.34,12.29,3.34c2.41,0,4.87-0.34,7.39-1.02c2.52-0.68,4.53-1.5,6.01-2.44v-6.22
				H533.78z"/>
			<path class="st1" d="M579.16,265.13v-14.14l-17.78-19.25h7.46l9.07,10.08c1.79,1.99,3.37,3.88,4.73,5.65
				c1.36-1.75,3.04-3.72,5.04-5.91l8.97-9.83h7.06l-18.44,19.25v14.14H579.16z"/>
			<path class="st1" d="M633.5,265.13v-33.39h6.11v29.45h22.74v3.94H633.5z"/>
			<path class="st1" d="M673.31,265.13v-33.39h6.11v29.45h22.74v3.94H673.31z"/>
			<path class="st1" d="M746.26,253.43l6.15,1.12c-1.36,3.75-3.73,6.55-7.12,8.39s-7.52,2.77-12.39,2.77
				c-4.28,0-7.93-0.62-10.97-1.86c-3.03-1.24-5.52-3.22-7.45-5.96c-1.93-2.73-2.9-5.96-2.9-9.69c0-3.68,0.97-6.79,2.9-9.33
				c1.94-2.54,4.56-4.47,7.86-5.77c3.31-1.3,7-1.95,11.07-1.95c4.46,0,8.29,0.82,11.5,2.47s5.45,4.06,6.73,7.24l-5.99,1.02
				c-2.05-4.63-6.17-6.95-12.35-6.95c-3.08,0-5.74,0.47-8,1.4s-4.06,2.39-5.4,4.37c-1.35,1.98-2.02,4.48-2.02,7.5
				c0,4.57,1.36,8.01,4.07,10.29c2.71,2.29,6.32,3.43,10.83,3.43c3.33,0,6.2-0.7,8.62-2.11S745.44,256.28,746.26,253.43z"/>
		</g>
		<g>
			<path d="M134.05,265.13v-29.45h-15.21v-3.94h36.6v3.94h-15.29v29.45H134.05z"/>
			<path d="M165.68,265.13v-33.39h33.38v3.94h-27.27v10.2h25.54v3.94h-25.54v11.37h28.35v3.94H165.68z"/>
			<path d="M245.28,253.43l6.15,1.12c-1.36,3.75-3.73,6.55-7.12,8.39c-3.39,1.84-7.52,2.77-12.39,2.77c-4.28,0-7.93-0.62-10.97-1.86
				c-3.03-1.24-5.52-3.22-7.45-5.96c-1.93-2.73-2.9-5.96-2.9-9.69c0-3.68,0.97-6.79,2.9-9.33c1.93-2.54,4.56-4.47,7.86-5.77
				c3.31-1.3,7-1.95,11.07-1.95c4.46,0,8.29,0.82,11.5,2.47s5.45,4.06,6.73,7.24l-5.99,1.02c-2.05-4.63-6.17-6.95-12.35-6.95
				c-3.08,0-5.74,0.47-8,1.4c-2.26,0.93-4.06,2.39-5.4,4.37s-2.02,4.48-2.02,7.5c0,4.57,1.36,8.01,4.07,10.29
				c2.71,2.29,6.32,3.43,10.83,3.43c3.33,0,6.2-0.7,8.62-2.11S244.46,256.28,245.28,253.43z"/>
			<path d="M262.96,265.13v-33.39h6.11v13.71h24.01v-13.71h6.11v33.39h-6.11V249.4h-24.01v15.74H262.96z"/>
			<path d="M313.29,265.13v-33.39h6.26l24.28,26.27v-26.27h5.84v33.39h-6.26l-24.24-26.27v26.27H313.29z"/>
			<path d="M362.24,248.87c0-5.69,2.11-10.07,6.34-13.13c4.22-3.06,9.49-4.59,15.79-4.59c4.07,0,7.78,0.68,11.14,2.05
				c3.35,1.37,6.01,3.35,7.97,5.96c1.96,2.6,2.94,5.71,2.94,9.3c0,4.95-1.9,8.98-5.68,12.09c-4.17,3.43-9.64,5.15-16.4,5.15
				c-6.81,0-12.29-1.76-16.44-5.28C364.12,257.23,362.24,253.38,362.24,248.87z M368.54,248.93c0,4.12,1.53,7.31,4.59,9.59
				s6.78,3.41,11.16,3.41c4.48,0,8.24-1.15,11.27-3.44s4.55-5.67,4.55-10.12c0-2.87-0.78-5.44-2.34-7.7
				c-1.2-1.73-3.01-3.12-5.43-4.16c-2.42-1.04-5.06-1.56-7.93-1.56c-4.61,0-8.41,1.14-11.39,3.42
				C370.03,240.63,368.54,244.16,368.54,248.93z"/>
			<path d="M417.72,265.13v-33.39h6.11v29.45h22.74v3.94H417.72z"/>
			<path d="M456.18,248.87c0-5.69,2.11-10.07,6.34-13.13c4.22-3.06,9.49-4.59,15.79-4.59c4.07,0,7.78,0.68,11.14,2.05
				c3.35,1.37,6.01,3.35,7.97,5.96c1.96,2.6,2.94,5.71,2.94,9.3c0,4.95-1.9,8.98-5.68,12.09c-4.17,3.43-9.64,5.15-16.4,5.15
				c-6.81,0-12.29-1.76-16.44-5.28C458.06,257.23,456.18,253.38,456.18,248.87z M462.48,248.93c0,4.12,1.53,7.31,4.59,9.59
				s6.78,3.41,11.16,3.41c4.48,0,8.24-1.15,11.27-3.44s4.55-5.67,4.55-10.12c0-2.87-0.78-5.44-2.34-7.7
				c-1.2-1.73-3.01-3.12-5.43-4.16c-2.42-1.04-5.06-1.56-7.93-1.56c-4.61,0-8.41,1.14-11.39,3.42
				C463.97,240.63,462.48,244.16,462.48,248.93z"/>
			<path d="M533.78,252.04v-3.94l19.55-0.02v12.41c-3,1.73-6.09,3.03-9.29,3.91c-3.2,0.87-6.49,1.31-9.87,1.31
				c-4.51,0-8.53-0.67-12.06-2.01c-3.53-1.34-6.33-3.29-8.39-5.86c-2.06-2.57-3.09-5.65-3.09-9.25c0-3.65,1.04-6.82,3.11-9.53
				c2.07-2.7,4.79-4.7,8.14-5.98c3.35-1.28,7.32-1.93,11.91-1.93c3.38,0,6.34,0.37,8.87,1.12c2.54,0.74,4.62,1.8,6.26,3.17
				c1.64,1.37,2.87,3.24,3.69,5.63l-5.49,1.09c-0.74-1.88-1.68-3.29-2.8-4.23c-1.13-0.93-2.61-1.67-4.46-2.2
				c-1.84-0.53-3.92-0.8-6.22-0.8c-3.35,0-6.24,0.48-8.66,1.45c-2.42,0.97-4.37,2.47-5.84,4.5c-1.47,2.04-2.21,4.52-2.21,7.45
				c0,4.47,1.58,7.81,4.72,10.04c3.15,2.23,7.25,3.34,12.29,3.34c2.41,0,4.87-0.34,7.39-1.02c2.52-0.68,4.53-1.5,6.01-2.44v-6.22
				H533.78z"/>
			<path d="M579.16,265.13v-14.14l-17.78-19.25h7.46l9.07,10.08c1.79,1.99,3.37,3.88,4.73,5.65c1.36-1.75,3.04-3.72,5.04-5.91
				l8.97-9.83h7.06l-18.44,19.25v14.14H579.16z"/>
			<path d="M633.5,265.13v-33.39h6.11v29.45h22.74v3.94H633.5z"/>
			<path d="M673.31,265.13v-33.39h6.11v29.45h22.74v3.94H673.31z"/>
			<path d="M746.26,253.43l6.15,1.12c-1.36,3.75-3.73,6.55-7.12,8.39s-7.52,2.77-12.39,2.77c-4.28,0-7.93-0.62-10.97-1.86
				c-3.03-1.24-5.52-3.22-7.45-5.96c-1.93-2.73-2.9-5.96-2.9-9.69c0-3.68,0.97-6.79,2.9-9.33c1.94-2.54,4.56-4.47,7.86-5.77
				c3.31-1.3,7-1.95,11.07-1.95c4.46,0,8.29,0.82,11.5,2.47s5.45,4.06,6.73,7.24l-5.99,1.02c-2.05-4.63-6.17-6.95-12.35-6.95
				c-3.08,0-5.74,0.47-8,1.4s-4.06,2.39-5.4,4.37c-1.35,1.98-2.02,4.48-2.02,7.5c0,4.57,1.36,8.01,4.07,10.29
				c2.71,2.29,6.32,3.43,10.83,3.43c3.33,0,6.2-0.7,8.62-2.11S745.44,256.28,746.26,253.43z"/>
		</g>
	</g>
	<g>
		<g>
			<path d="M62.79,60.58l-5.24-0.03c-4.92,0-9.27,0.32-13.06,0.97c-3.79,0.65-5.68,1.39-5.68,2.22c1.05,2.5,1.98,4.85,2.8,7.04
				s1.23,4.27,1.23,6.23c0,1.42-0.18,2.57-0.54,3.44s-1.04,1.84-2.04,2.88c-0.3-2.75-0.95-5.65-1.98-8.67
				c-0.35-1.06-1.22-3.31-2.62-6.73c-0.86-2.11-1.29-3.51-1.29-4.2c0-0.98,0.35-2.2,1.05-3.66c0.56-1.19,1.21-2.24,1.94-3.16
				c0.86-1.04,2.36-1.87,4.49-2.47s5.39-1.1,9.77-1.47c-2.15-2.34-4.03-3.51-5.64-3.51c-0.7,0-1.36,0.21-1.98,0.63
				c-0.62,0.42-1.63,1.34-3.02,2.76l-1.93-0.75c1.18-3.19,2.64-5.65,4.37-7.37c1.73-1.72,3.63-2.58,5.7-2.58
				c1.8,0,3.8,0.8,6.01,2.41c2.2,1.61,4.76,4.11,7.66,7.51V60.58z"/>
			<path d="M68.71,69.76v-8.8h11.33v8.8H68.71z"/>
			<path d="M115.47,60.58l-5.24-0.03c-4.92,0-9.27,0.32-13.06,0.97c-3.79,0.65-5.68,1.39-5.68,2.22c1.05,2.5,1.98,4.85,2.8,7.04
				s1.23,4.27,1.23,6.23c0,1.42-0.18,2.57-0.54,3.44s-1.04,1.84-2.04,2.88c-0.3-2.75-0.95-5.65-1.98-8.67
				c-0.35-1.06-1.22-3.31-2.62-6.73c-0.86-2.11-1.29-3.51-1.29-4.2c0-0.98,0.35-2.2,1.05-3.66c0.56-1.19,1.21-2.24,1.94-3.16
				c0.86-1.04,2.36-1.87,4.49-2.47s5.39-1.1,9.77-1.47c-2.15-2.34-4.03-3.51-5.64-3.51c-0.7,0-1.36,0.21-1.98,0.63
				c-0.62,0.42-1.63,1.34-3.02,2.76l-1.93-0.75c1.18-3.19,2.64-5.65,4.37-7.37c1.73-1.72,3.63-2.58,5.7-2.58
				c1.8,0,3.8,0.8,6.01,2.41c2.2,1.61,4.76,4.11,7.66,7.51V60.58z"/>
			<path d="M121.39,69.76v-8.8h11.33v8.8H121.39z"/>
			<path d="M166.7,60.58h-18.26c-1.77,0-3.13-0.29-4.07-0.88c-1.16-0.71-1.73-1.87-1.73-3.48c0-0.92,0.06-1.91,0.18-2.97
				s0.3-2.14,0.54-3.22l1.53-0.06c0.21,0.73,0.69,1.26,1.43,1.6c0.74,0.33,1.63,0.5,2.68,0.5h13.87c-0.62-3.07-1.69-5.52-3.22-7.36
				c-1.26-1.52-3.02-2.84-5.28-3.95l2.9-9.77c3.49,2.02,5.97,4.63,7.42,7.83c1.34,2.94,2.02,6.85,2.02,11.71V60.58z M159.81,19.44
				l-4.84,7.01l-9.43-3.82l4.88-7.08L159.81,19.44z"/>
			<path d="M172.62,69.76v-8.8h11.33v8.8H172.62z"/>
			<path d="M263.88,60.55c-2.96,0-5.07-0.1-6.33-0.31s-3.61-0.79-7.05-1.75c-1.56,0.86-2.95,1.42-4.17,1.69
				c-1.22,0.27-3.06,0.41-5.5,0.41h-6.57c0,4.84-1.99,8.33-5.97,10.46c-3.47,1.86-8.69,2.79-15.68,2.79
				c-6.53,0-11.56-0.92-15.09-2.77c-3.53-1.85-5.3-4.47-5.3-7.87c0-2.9,0.56-5.55,1.69-7.95c1.24-2.65,3.65-6.09,7.26-10.33
				l2.42,1.32c-2.66,3.53-4.4,6.08-5.22,7.67c-0.82,1.59-1.23,3.22-1.23,4.92c0,2.19,1.51,3.98,4.53,5.37
				c3.02,1.39,6.99,2.08,11.91,2.08c4.84,0,8.91-0.72,12.21-2.16c3.31-1.44,4.96-3.2,4.96-5.29c0-1.29-0.29-2.58-0.87-3.85
				c-0.58-1.27-1.82-3.31-3.73-6.11l3.55-8.45c1.91,2.5,3.17,4.57,3.79,6.2c0.54,1.42,0.81,3.25,0.81,5.48H238
				c4.06,0,6.89-0.37,8.48-1.11c1.6-0.74,2.4-2.07,2.4-3.99c0-0.83,0.1-1.44,0.3-1.83c0.2-0.39,0.68-0.79,1.43-1.21l1.89-1.03
				c0.05,0.4,0.09,0.93,0.12,1.61c0.03,0.68,0.04,1.12,0.04,1.33c0,1.15-0.22,2.67-0.65,4.57c1.24,0.31,2.48,0.6,3.73,0.86
				c1.25,0.26,2.42,0.45,3.53,0.58c0-0.75-0.34-1.67-1.01-2.76c-0.67-1.08-1.01-1.79-1.01-2.13c0-0.25,0.05-0.49,0.14-0.72
				c0.09-0.23,0.32-0.53,0.67-0.91l3.79-4.2c0.73,1.31,1.24,2.51,1.55,3.58c0.31,1.08,0.46,2.42,0.46,4.02V60.55z M260.57,30.56
				l-4.43,6.39l-5.72-2.5l-3.22,4.95l-7.5-3.19l4.19-6.07l5.97,2.32l3.39-5.07L260.57,30.56z M252.75,23.14l-4.03,6.51l-7.58-3.13
				l4.11-6.39L252.75,23.14z"/>
			<path d="M306.16,60.58h-5.64c-3.14,0-5.42-1-6.81-3.01c-1.56-2.21-2.34-5.94-2.34-11.18v-8.92c0-2.02-0.36-3.6-1.09-4.73
				c-0.35-0.54-1.16-1.33-2.42-2.35l4.35-7.83c1.56,1.67,2.65,3.32,3.26,4.95c0.73,1.9,1.09,4.32,1.09,7.26v6.17
				c0,4.36,0.38,7.39,1.13,9.08c0.59,1.36,1.53,2.04,2.82,2.04h5.64V60.58z"/>
			<path d="M328.57,60.58h-25.23v-8.52h21.2c-0.3-1.42-0.83-2.62-1.61-3.6c-0.4-0.54-1.34-1.48-2.82-2.82l3.22-7.45
				c2.01,1.77,3.39,3.63,4.13,5.57s1.11,4.82,1.11,8.64V60.58z M327.92,66.09l-4.19,6.07l-5.96-2.32l-3.39,5.07l-7.34-3.19
				l4.43-6.39l5.72,2.5l3.22-4.95L327.92,66.09z"/>
			<path d="M371.78,60.58h-46.03v-8.52h28.66c-3.25-2.61-6.26-4.49-9.03-5.64c-2.45-1.02-4.84-1.53-7.17-1.53
				c-0.7,0-1.34,0.03-1.91,0.08c-0.58,0.05-1.42,0.17-2.52,0.36c1.48-2.63,3.12-4.57,4.94-5.82c1.81-1.25,3.88-1.88,6.19-1.88
				c1.77,0,3.48,0.33,5.12,1c1.64,0.67,3.48,1.74,5.52,3.22c1.61,1.17,3.9,3,6.85,5.48c2.02,1.75,3.55,2.89,4.62,3.41
				c1.06,0.52,2.65,0.96,4.78,1.32V60.58z M356.78,67.41l-4.84,7.01l-9.43-3.82l4.88-7.08L356.78,67.41z"/>
			<path d="M409.02,58.42c0,3.59-1.96,7.14-5.88,10.65c-3.92,3.51-7.79,5.26-11.61,5.26c-2.23,0-4.67-0.55-7.32-1.66
				c-2.65-1.11-6.71-3.29-12.19-6.54l1.69-1.82c2.9,1.5,5.28,2.5,7.13,3.01c1.53,0.42,3.26,0.63,5.2,0.63
				c2.61,0,5.19-0.56,7.74-1.69c3.01-1.34,6.13-3.49,9.35-6.45c-1.13,0.12-2.07,0.19-2.82,0.19c-2.66,0-4.78-0.67-6.35-2.02
				c-1.57-1.35-2.36-3.18-2.36-5.5c0-3.13,0.93-6.15,2.78-9.05c2.01-3.15,4.31-4.73,6.89-4.73c2.15,0,3.98,1.14,5.48,3.41
				c1.5,2.28,2.26,5.02,2.26,8.23V58.42z M404.18,52.07c-0.75-3.36-2.28-5.04-4.59-5.04c-0.83,0-1.5,0.26-2,0.77
				c-0.5,0.51-0.75,1.07-0.75,1.67c0,0.75,0.53,1.37,1.59,1.86c1.06,0.49,2.46,0.74,4.21,0.74H404.18z"/>
			<path d="M428.37,60.58H406.2v-8.52h17.33l-4.88-21.26l-2.58-1.31c0-1.23,0.24-2.47,0.73-3.73c0.62-1.59,1.67-3.48,3.14-5.67
				l1.85,0.75c0,0.12-0.05,0.46-0.16,1c0,0.69,0.56,1.36,1.69,2c0.99,0.58,2.58,1.23,4.76,1.94c-0.24,1.34-0.6,2.64-1.07,3.91
				c-0.47,1.27-1,2.41-1.59,3.41l-1.45-0.44l4.39,19.38V60.58z"/>
			<path d="M465.61,58.42c0,3.59-1.96,7.14-5.88,10.65c-3.92,3.51-7.79,5.26-11.61,5.26c-2.23,0-4.67-0.55-7.32-1.66
				c-2.65-1.11-6.71-3.29-12.19-6.54l1.69-1.82c2.9,1.5,5.28,2.5,7.13,3.01c1.53,0.42,3.26,0.63,5.2,0.63
				c2.61,0,5.19-0.56,7.74-1.69c3.01-1.34,6.13-3.49,9.35-6.45c-1.13,0.12-2.07,0.19-2.82,0.19c-2.66,0-4.78-0.67-6.35-2.02
				c-1.57-1.35-2.36-3.18-2.36-5.5c0-3.13,0.93-6.15,2.78-9.05c2.01-3.15,4.31-4.73,6.89-4.73c2.15,0,3.98,1.14,5.48,3.41
				c1.5,2.28,2.26,5.02,2.26,8.23V58.42z M460.77,52.07c-0.75-3.36-2.28-5.04-4.59-5.04c-0.83,0-1.5,0.26-2,0.77
				c-0.5,0.51-0.75,1.07-0.75,1.67c0,0.75,0.53,1.37,1.59,1.86c1.06,0.49,2.46,0.74,4.21,0.74H460.77z"/>
			<path d="M488.02,60.58h-25.23v-8.52h21.2c-0.3-1.42-0.83-2.62-1.61-3.6c-0.4-0.54-1.34-1.48-2.82-2.82l3.22-7.45
				c2.01,1.77,3.39,3.63,4.13,5.57s1.11,4.82,1.11,8.64V60.58z M488.26,26.49l-4.84,7.01L474,29.68l4.88-7.08L488.26,26.49z"/>
			<path d="M517.77,60.58H485.2v-8.52h26.16c-1.05-0.98-2.07-1.84-3.06-2.57c-0.81-0.58-1.89-1.29-3.26-2.13
				c-1.53-0.92-3.05-1.84-4.55-2.76l-1.29,1.13c-2.39-1.84-3.82-2.95-4.27-3.35c-1.34-1.19-2.02-2.56-2.02-4.1
				c0-2.11,0.19-3.59,0.56-4.45c0.54-1.21,1.68-2.29,3.43-3.23c1.56-0.83,3.22-1.6,5-2.29c1.4-0.54,3.25-1.18,5.56-1.91
				c1.07-0.33,3.35-1.02,6.81-2.07v7.45c-0.13,0-1.26,0.27-3.39,0.81c-2.63,0.67-4.73,1.25-6.29,1.75c-2.26,0.71-3.39,1.24-3.39,1.6
				c0,0.19,0.95,1,2.86,2.44c2.61,1.96,4.8,3.76,6.57,5.39c2.93,2.69,5.31,5.38,7.13,8.05V60.58z"/>
			<path d="M540.18,60.58h-25.23v-8.52h21.2c-0.3-1.42-0.83-2.62-1.61-3.6c-0.4-0.54-1.34-1.48-2.82-2.82l3.22-7.45
				c2.01,1.77,3.39,3.63,4.13,5.57s1.11,4.82,1.11,8.64V60.58z M539.53,27.11l-4.19,6.07l-5.96-2.32l-3.39,5.07l-7.34-3.19
				l4.43-6.39l5.72,2.5l3.22-4.95L539.53,27.11z"/>
			<path d="M559.53,60.58h-22.17v-8.52h17.33l-4.88-21.26l-2.58-1.31c0-1.23,0.24-2.47,0.73-3.73c0.62-1.59,1.67-3.48,3.14-5.67
				l1.85,0.75c0,0.12-0.05,0.46-0.16,1c0,0.69,0.56,1.36,1.69,2c0.99,0.58,2.58,1.23,4.76,1.94c-0.24,1.34-0.6,2.64-1.07,3.91
				c-0.47,1.27-1,2.41-1.59,3.41l-1.45-0.44l4.39,19.38V60.58z"/>
			<path d="M578.87,60.58H556.7v-8.52h17.33l-4.88-21.26l-2.58-1.31c0-1.23,0.24-2.47,0.73-3.73c0.62-1.59,1.67-3.48,3.14-5.67
				l1.85,0.75c0,0.12-0.05,0.46-0.16,1c0,0.69,0.56,1.36,1.69,2c0.99,0.58,2.58,1.23,4.76,1.94c-0.24,1.34-0.6,2.64-1.07,3.91
				c-0.47,1.27-1,2.41-1.59,3.41l-1.45-0.44l4.39,19.38V60.58z"/>
			<path d="M646.47,60.58h-27.05c-5.8,0-9.98-0.77-12.54-2.32c-2.29-1.38-3.43-3.52-3.43-6.42c0-1.94,0.38-3.85,1.15-5.71
				c0.77-1.87,2.08-4.1,3.93-6.68l2.42,1.31c-1.05,1.61-1.73,2.8-2.04,3.58c-0.31,0.78-0.46,1.61-0.46,2.49c0,2,0.95,3.38,2.86,4.12
				c1.91,0.74,5.55,1.11,10.92,1.11h19.39l-4.88-21.26l-2.58-1.31c0-1.23,0.24-2.47,0.73-3.73c0.62-1.59,1.67-3.48,3.14-5.67
				l1.85,0.75c0,0.12-0.05,0.46-0.16,1c0,0.69,0.56,1.36,1.69,2c0.99,0.58,2.58,1.23,4.76,1.94c-0.24,1.34-0.6,2.64-1.07,3.91
				c-0.47,1.27-1,2.41-1.59,3.41l-1.45-0.44l4.39,19.38V60.58z M632.64,37.26c0,2.78-1.06,4.94-3.16,6.5
				c-2.11,1.56-5.06,2.33-8.85,2.33c-1.05,0-1.89-0.02-2.52-0.06c-0.63-0.04-1.67-0.17-3.12-0.38l0.48-2h0.73
				c2.66,0,5.11-0.29,7.36-0.86c2.24-0.57,3.37-1.25,3.37-2.02c0-0.29-0.13-0.5-0.4-0.61s-0.81-0.2-1.61-0.27
				c-2.58,0-3.87-0.88-3.87-2.63c0-1.25,0.32-2.65,0.95-4.18c0.63-1.53,1.52-3.08,2.68-4.65c0.75-0.96,1.52-1.67,2.3-2.13
				c0.78-0.46,1.95-0.88,3.51-1.25c-0.05,0.81-0.09,1.7-0.12,2.66c-0.03,0.96-0.04,1.81-0.04,2.54c-1.45,0.31-2.66,0.75-3.63,1.31
				c-0.86,0.5-1.29,0.94-1.29,1.31c0,0.44,0.91,0.75,2.74,0.94c1.67,0,2.83,0.26,3.51,0.78C632.31,35.12,632.64,36.01,632.64,37.26z
				"/>
			<path d="M668.88,60.58h-25.23v-8.52h21.2c-0.3-1.42-0.83-2.62-1.61-3.6c-0.4-0.54-1.34-1.48-2.82-2.82l3.22-7.45
				c2.01,1.77,3.39,3.63,4.13,5.57s1.11,4.82,1.11,8.64V60.58z M668.23,66.09l-4.19,6.07l-5.96-2.32l-3.39,5.07l-7.34-3.19
				l4.43-6.39l5.72,2.5l3.22-4.95L668.23,66.09z"/>
			<path d="M691.29,60.58h-25.23v-8.52h21.2c-0.3-1.42-0.83-2.62-1.61-3.6c-0.4-0.54-1.34-1.48-2.82-2.82l3.22-7.45
				c2.01,1.77,3.39,3.63,4.13,5.57s1.11,4.82,1.11,8.64V60.58z M690.64,27.11l-4.19,6.07l-5.96-2.32l-3.39,5.07l-7.34-3.19
				l4.43-6.39l5.72,2.5l3.22-4.95L690.64,27.11z"/>
			<path d="M710.64,60.58h-5.64c-3.14,0-5.42-1-6.81-3.01c-1.56-2.21-2.34-5.94-2.34-11.18v-8.92c0-2.02-0.36-3.6-1.09-4.73
				c-0.35-0.54-1.16-1.33-2.42-2.35l4.35-7.83c1.56,1.67,2.65,3.32,3.26,4.95c0.73,1.9,1.09,4.32,1.09,7.26v6.17
				c0,4.36,0.38,7.39,1.13,9.08c0.59,1.36,1.53,2.04,2.82,2.04h5.64V60.58z"/>
			<path d="M744.9,60.55c-2.82,0-6.14-0.43-9.96-1.28c-3.36-0.75-6.31-1.64-8.87-2.66c-1.56,1.82-3.48,3.01-5.76,3.57
				c-1.1,0.27-2.61,0.41-4.51,0.41h-7.98v-8.52h7.98c2.42,0,4.34-0.23,5.76-0.69c1.83-0.58,3.09-1.6,3.79-3.04
				c1.53-2.65,3.49-4.83,5.88-6.54c2.12-1.52,3.92-2.29,5.4-2.29c1.37,0,3.06,1.61,5.08,4.82c2.12,3.4,3.18,6.53,3.18,9.39V60.55z
				 M737.36,51.1c0-0.46-0.58-1.25-1.73-2.38c-1.29-1.25-2.41-1.88-3.35-1.88c-1.05,0-1.93,0.94-2.66,2.82
				c1.4,0.42,2.46,0.73,3.18,0.94c2.18,0.63,3.4,0.94,3.67,0.94C737.06,51.54,737.36,51.39,737.36,51.1z"/>
			<path d="M767.31,60.58h-25.23v-8.52h21.2c-0.3-1.42-0.83-2.62-1.61-3.6c-0.4-0.54-1.34-1.48-2.82-2.82l3.22-7.45
				c2.01,1.77,3.39,3.63,4.13,5.57s1.11,4.82,1.11,8.64V60.58z M766.66,66.09l-4.19,6.07l-5.96-2.32l-3.39,5.07l-7.34-3.19
				l4.43-6.39l5.72,2.5l3.22-4.95L766.66,66.09z"/>
			<path d="M786.65,60.58h-5.64c-3.14,0-5.42-1-6.81-3.01c-1.56-2.21-2.34-5.94-2.34-11.18v-8.92c0-2.02-0.36-3.6-1.09-4.73
				c-0.35-0.54-1.16-1.33-2.42-2.35l4.35-7.83c1.56,1.67,2.65,3.32,3.26,4.95c0.73,1.9,1.09,4.32,1.09,7.26v6.17
				c0,4.36,0.38,7.39,1.13,9.08c0.59,1.36,1.53,2.04,2.82,2.04h5.64V60.58z"/>
			<path d="M836.88,60.58c-3.01,0-5.51-0.17-7.5-0.5c-1.99-0.33-3.95-0.87-5.88-1.6c-1.56,0.86-2.95,1.42-4.17,1.69
				c-1.22,0.27-3.06,0.41-5.5,0.41h-6.57c-1.8,0-3.22-0.36-4.27-1.1c-1.05-0.73-1.99-1.94-2.82-3.63c-1.48,1.75-3.13,3.01-4.96,3.76
				c-1.56,0.65-3.43,0.97-5.6,0.97h-5.76v-8.52h5.76c2.82,0,5.17-0.62,7.05-1.85c2.44-1.61,3.67-4.05,3.67-7.33l2.66,0.31
				c-0.05,0.67-0.11,1.43-0.16,2.29c-0.05,0.86-0.08,1.81-0.08,2.85c0,1.06,0.47,1.95,1.41,2.66c0.94,0.71,2.02,1.06,3.22,1.06h4.96
				c3.28,0,5.62-0.35,7.01-1.06c1.69-0.86,2.54-2.45,2.54-4.79c0-0.5,0.2-0.95,0.61-1.35c0.24-0.23,0.74-0.57,1.49-1.03l1.53-0.94
				c0.05,0.4,0.09,0.93,0.12,1.61c0.03,0.68,0.04,1.12,0.04,1.33c0,1.15-0.21,2.67-0.64,4.57c0.99,0.38,2.11,0.7,3.35,0.97
				c1.24,0.27,2.54,0.48,3.91,0.63c0-0.71-0.34-1.63-1.01-2.76c-0.67-1.13-1.01-1.89-1.01-2.29c0-0.54,0.09-0.96,0.28-1.25
				c0.05-0.1,0.35-0.43,0.89-0.97l3.43-3.6c0.73,1.31,1.24,2.51,1.55,3.58c0.31,1.08,0.46,2.42,0.46,4.02V60.58z"/>
		</g>
	</g>
</g>
</svg>
