<?xml version="1.0" encoding="utf-8"?>
<!-- Generator: Adobe Illustrator 25.4.1, SVG Export Plug-In . SVG Version: 6.00 Build 0)  -->
<svg version="1.1" id="Layer_1" xmlns="http://www.w3.org/2000/svg" xmlns:xlink="http://www.w3.org/1999/xlink" x="0px" y="0px"
	 viewBox="0 0 283.46 283.46" style="enable-background:new 0 0 283.46 283.46;" xml:space="preserve">
<style type="text/css">
	.st0{stroke:#FFFFFF;stroke-width:0.25;stroke-miterlimit:10;}
</style>
<g>
	<path class="st0" d="M159.01,41.63L46.87,120.82c-2.44,1.86-9.64,7.85-12.72,18.63c-3.21,11.25,0.13,20.51,1.25,23.29
		c2.72,3.02,6.89,7.43,12.36,12.36c7.41,6.68,13.5,10.96,16.48,13.08c9.58,6.8,22.43,16.28,40.67,30.1
		c23.29-15.53,46.58-31.05,69.87-46.58l-22.21-13.62l22.93-13.62l23.65,16.48l0.36,23.29l-75.96,48.01l13.97,8.6l9.67-0.36
		l96.74-68.08c2-3.26,7.13-12.6,6.18-25.26c-0.76-10.13-5.04-17.35-7.26-20.6c-11.35-8.48-22.69-16.96-34.04-25.44l-103.91,70.58
		l-41.2-29.74c-1.17-2.09-4.09-7.92-3.4-15.77c0.67-7.67,4.4-12.81,5.91-14.69c43.95-30.69,87.9-61.39,131.85-92.08l1.07,27.59
		L81.26,124.76l24.01,19.35l98.53-65.57c2.17-0.5,6.7-1.23,12,0.36c3.78,1.13,6.48,3,8.06,4.3c12.54,9.67,25.08,19.35,37.62,29.02
		c3.3,4.5,10.6,15.68,11.91,31.89c1.35,16.57-4.32,29.02-6.9,33.95c-21.65,20.79-38.98,34.19-50.88,42.61
		c-6.71,4.74-8.74,6.13-20.06,13.85c-13.2,9.01-24.21,16.33-31.89,21.38c-2.81,2.23-9.01,6.52-18,7.79
		c-12.61,1.79-22.16-3.56-24.99-5.28c-33.96-25.93-67.92-51.85-101.88-77.78c-2.28-3.76-12.95-22.22-7.31-45.47
		c4.25-17.57,15.42-27.98,19.62-31.53c34.16-23.29,68.32-46.58,102.47-69.87l16.84,0.72L159.01,41.63z"/>
</g>
</svg>
